{
  "asset": {
    "version": "2.0",
    "generator": "THREE.GLTFExporter"
  },
  "scenes": [
    {
      "nodes": [
        1,
        3
      ],
      "name": "Scene"
    }
  ],
  "scene": 0,
  "nodes": [
    {
      "name": "polySurface31",
      "mesh": 0
    },
    {
      "matrix": [
        592.076210765048,
        0,
        0,
        0,
        0,
        592.076210765048,
        0,
        0,
        0,
        0,
        592.076210765048,
        0,
        0,
        0,
        0,
        1
      ],
      "name": "model (1).obj",
      "children": [
        0
      ]
    },
    {
      "name": "polySurface32",
      "mesh": 1
    },
    {
      "matrix": [
        0.987809221955738,
        0,
        0,
        0,
        0,
        0.987809221955738,
        0,
        0,
        0,
        0,
        0.987809221955738,
        0,
        0,
        0,
        0,
        1
      ],
      "name": "model (2).obj",
      "children": [
        2
      ]
    }
  ],
  "bufferViews": [
    {
      "buffer": 0,
      "byteOffset": 0,
      "byteLength": 1296,
      "target": 34962,
      "byteStride": 12
    },
    {
      "buffer": 0,
      "byteOffset": 1296,
      "byteLength": 1296,
      "target": 34962,
      "byteStride": 12
    },
    {
      "buffer": 0,
      "byteOffset": 2592,
      "byteLength": 864,
      "target": 34962,
      "byteStride": 8
    },
    {
      "buffer": 0,
      "byteOffset": 3456,
      "byteLength": 12096,
      "target": 34962,
      "byteStride": 12
    },
    {
      "buffer": 0,
      "byteOffset": 15552,
      "byteLength": 12096,
      "target": 34962,
      "byteStride": 12
    },
    {
      "buffer": 0,
      "byteOffset": 27648,
      "byteLength": 8064,
      "target": 34962,
      "byteStride": 8
    }
  ],
  "buffers": [
    {
      "byteLength": 35712,
      "uri": "data:application/octet-stream;base64,"
    }
  ],
  "accessors": [
    {
      "bufferView": 0,
      "componentType": 5126,
      "count": 108,
      "max": [
        0.005267122760415077,
        0.0033857591915875673,
        -0.011401842348277569
      ],
      "min": [
        -0.005239410325884819,
        -0.0033857591915875673,
        -0.016999928280711174
      ],
      "type": "VEC3"
    },
    {
      "bufferView": 1,
      "componentType": 5126,
      "count": 108,
      "max": [
        0.950153648853302,
        1,
        0.999995768070221
      ],
      "min": [
        -0.9519517421722412,
        -1,
        -0.999995768070221
      ],
      "type": "VEC3"
    },
    {
      "bufferView": 2,
      "componentType": 5126,
      "count": 108,
      "max": [
        0.27500003576278687,
        1
      ],
      "min": [
        0.17500001192092896,
        0
      ],
      "type": "VEC2"
    },
    {
      "bufferView": 3,
      "componentType": 5126,
      "count": 1008,
      "max": [
        3.1247870922088623,
        2.6687471866607666,
        -6.784336566925049
      ],
      "min": [
        -3.043635845184326,
        1.7937854528427124,
        -10.172165870666504
      ],
      "type": "VEC3"
    },
    {
      "bufferView": 4,
      "componentType": 5126,
      "count": 1008,
      "max": [
        0.9996391534805298,
        0.7635000348091125,
        0.9996803402900696
      ],
      "min": [
        -0.9996391534805298,
        -1,
        -0.9996803402900696
      ],
      "type": "VEC3"
    },
    {
      "bufferView": 5,
      "componentType": 5126,
      "count": 1008,
      "max": [
        0.875,
        1
      ],
      "min": [
        0.125,
        0
      ],
      "type": "VEC2"
    }
  ],
  "materials": [
    {
      "pbrMetallicRoughness": {
        "metallicFactor": 0.5,
        "roughnessFactor": 0.5
      },
      "name": "lambert1"
    },
    {
      "pbrMetallicRoughness": {
        "metallicFactor": 0.5,
        "roughnessFactor": 0.5
      },
      "name": "lambert2"
    }
  ],
  "meshes": [
    {
      "primitives": [
        {
          "mode": 4,
          "attributes": {
            "POSITION": 0,
            "NORMAL": 1,
            "TEXCOORD_0": 2
          },
          "material": 0
        }
      ]
    },
    {
      "primitives": [
        {
          "mode": 4,
          "attributes": {
            "POSITION": 3,
            "NORMAL": 4,
            "TEXCOORD_0": 5
          },
          "material": 1
        }
      ]
    }
  ]
}