{
  "asset": {
    "version": "2.0",
    "generator": "THREE.GLTFExporter"
  },
  "scenes": [
    {
      "nodes": [
        2
      ],
      "name": "Scene"
    }
  ],
  "scene": 0,
  "nodes": [
    {
      "matrix": [
        0.9247104684462467,
        0,
        0,
        0,
        0,
        0.9247104684462467,
        0,
        0,
        0,
        0,
        0.9247104684462467,
        0,
        0,
        0,
        0,
        1
      ],
      "name": "pSphere1",
      "mesh": 0
    },
    {
      "name": "modelobj",
      "children": [
        0
      ]
    },
    {
      "matrix": [
        18.954362934099894,
        0,
        0,
        0,
        0,
        18.954362934099894,
        0,
        0,
        0,
        0,
        18.954362934099894,
        0,
        0,
        0,
        0,
        1
      ],
      "name": "MainBallmodelgltf",
      "children": [
        1
      ]
    }
  ],
  "bufferViews": [
    {
      "buffer": 0,
      "byteOffset": 0,
      "byteLength": 27360,
      "target": 34962,
      "byteStride": 12
    },
    {
      "buffer": 0,
      "byteOffset": 27360,
      "byteLength": 27360,
      "target": 34962,
      "byteStride": 12
    },
    {
      "buffer": 0,
      "byteOffset": 54720,
      "byteLength": 18240,
      "target": 34962,
      "byteStride": 8
    }
  ],
  "buffers": [
    {
      "byteLength": 72960,
      "uri": "data:application/octet-stream;base64,"
    }
  ],
  "accessors": [
    {
      "bufferView": 0,
      "componentType": 5126,
      "count": 2280,
      "max": [
        0.08664834499359131,
        0.1736961007118225,
        0.0866483598947525
      ],
      "min": [
        -0.0866483673453331,
        0.0003994083381257951,
        -0.08664838969707489
      ],
      "type": "VEC3"
    },
    {
      "bufferView": 1,
      "componentType": 5126,
      "count": 2280,
      "max": [
        1,
        1,
        1
      ],
      "min": [
        -1,
        -1,
        -1
      ],
      "type": "VEC3"
    },
    {
      "bufferView": 2,
      "componentType": 5126,
      "count": 2280,
      "max": [
        1.0000001192092896,
        1
      ],
      "min": [
        0,
        0
      ],
      "type": "VEC2"
    }
  ],
  "materials": [
    {
      "pbrMetallicRoughness": {
        "metallicFactor": 0.5,
        "roughnessFactor": 0.5
      },
      "emissiveFactor": [
        1,
        1,
        1
      ]
    }
  ],
  "meshes": [
    {
      "primitives": [
        {
          "mode": 4,
          "attributes": {
            "POSITION": 0,
            "NORMAL": 1,
            "TEXCOORD_0": 2
          },
          "material": 0
        }
      ]
    }
  ]
}